<?xml version="1.0" encoding="UTF-8"?>
<svg xmlns="http://www.w3.org/2000/svg" xmlns:xlink="http://www.w3.org/1999/xlink" width="200pt" height="62pt" viewBox="0 0 200 62" version="1.1">
<g id="surface1">
<path style=" stroke:none;fill-rule:nonzero;fill:rgb(43.921569%,87.058824%,94.509804%);fill-opacity:1;" d="M 23.328125 0 C 23.386719 0.0703125 23.445312 0.183594 23.507812 0.195312 C 24.757812 0.371094 24.804688 0.507812 24.757812 2.289062 C 24.695312 4.691406 24.726562 7.101562 24.671875 9.507812 C 24.625 11.75 24.542969 13.992188 24.410156 16.222656 C 24.410156 16.515625 23.96875 16.972656 23.71875 16.992188 C 22.160156 17.09375 20.597656 17.101562 19.03125 17.125 L 15.339844 17.125 C 15.382812 16.378906 15.421875 15.667969 15.46875 14.953125 C 15.589844 14.125 15.636719 13.28125 15.605469 12.4375 C 15.320312 10.300781 15.839844 8.597656 16.605469 6.816406 C 17.292969 5.003906 17.90625 3.132812 18.433594 1.214844 L 17.21875 2.835938 C 17.058594 5.195312 15.597656 8.070312 14.101562 8.53125 L 14.101562 2.929688 C 14.066406 2.433594 14.074219 1.933594 14.125 1.4375 C 14.242188 0.9375 14.398438 0.457031 14.582031 0 Z M 23.328125 0 "/>
<path style=" stroke:none;fill-rule:nonzero;fill:rgb(43.921569%,87.058824%,94.509804%);fill-opacity:1;" d="M 0 52.417969 C 1.59375 52.417969 3.183594 52.453125 4.773438 52.453125 L 33.4375 52.453125 C 33.648438 52.410156 33.867188 52.410156 34.078125 52.453125 C 34.214844 52.507812 34.3125 52.765625 34.429688 52.929688 C 34.308594 53.09375 34.210938 53.351562 34.070312 53.398438 C 33.832031 53.441406 33.585938 53.441406 33.347656 53.398438 L 1.039062 53.398438 C 0.691406 53.398438 0.34375 53.472656 0 53.507812 Z M 0 52.417969 "/>
<path style=" stroke:none;fill-rule:nonzero;fill:rgb(43.921569%,87.058824%,94.509804%);fill-opacity:1;" d="M 160.671875 5.628906 L 160.671875 29.785156 C 159.480469 29.785156 158.324219 29.832031 157.171875 29.75 C 156.921875 29.75 156.628906 29.328125 156.453125 29 C 154.191406 24.734375 151.9375 20.460938 149.699219 16.167969 C 149.535156 15.863281 149.371094 15.5625 149.082031 15.011719 L 149.082031 29.710938 L 145.058594 29.710938 L 145.058594 5.546875 C 146.230469 5.546875 147.40625 5.511719 148.578125 5.582031 C 148.808594 5.582031 149.0625 6.003906 149.222656 6.316406 C 151.488281 10.578125 153.742188 14.851562 155.988281 19.132812 C 156.160156 19.464844 156.347656 19.78125 156.628906 20.289062 L 156.628906 5.628906 Z M 160.671875 5.628906 "/>
<path style=" stroke:none;fill-rule:nonzero;fill:rgb(43.921569%,87.058824%,94.509804%);fill-opacity:1;" d="M 123.789062 29.722656 L 119.46875 29.722656 L 119.46875 5.726562 C 119.527344 5.667969 119.566406 5.585938 119.609375 5.585938 C 122.734375 5.632812 125.875 5.445312 128.984375 5.792969 C 131.84375 6.125 133.574219 8.382812 134.03125 11.84375 C 134.550781 15.75 133.902344 19.382812 131.433594 21.492188 C 131.347656 21.578125 131.269531 21.675781 131.199219 21.785156 L 134.695312 29.789062 C 133.632812 29.710938 132.566406 29.722656 131.503906 29.824219 C 130.144531 30.074219 129.375 29.390625 128.898438 27.566406 C 128.472656 26.15625 127.972656 24.792969 127.402344 23.488281 C 127.300781 23.226562 127.078125 22.910156 126.902344 22.910156 C 125.882812 22.851562 124.875 22.878906 123.789062 22.878906 Z M 123.808594 18.109375 C 125.292969 18.003906 126.726562 18.050781 128.125 17.769531 C 129.421875 17.507812 130.101562 16.035156 130.085938 14.105469 C 130.070312 12.175781 129.390625 10.871094 128.085938 10.636719 C 126.683594 10.378906 125.246094 10.417969 123.808594 10.328125 Z M 123.808594 18.109375 "/>
<path style=" stroke:none;fill-rule:nonzero;fill:rgb(43.921569%,87.058824%,94.509804%);fill-opacity:1;" d="M 84.003906 5.582031 L 88.269531 5.582031 L 88.269531 15.402344 L 95.378906 15.402344 L 95.378906 5.621094 L 99.703125 5.621094 L 99.703125 29.71875 L 95.445312 29.71875 L 95.445312 20.386719 L 88.335938 20.386719 L 88.335938 29.714844 L 84.003906 29.714844 Z M 84.003906 5.582031 "/>
<path style=" stroke:none;fill-rule:nonzero;fill:rgb(43.921569%,87.058824%,94.509804%);fill-opacity:1;" d="M 103.105469 29.71875 L 103.105469 5.628906 L 116.40625 5.628906 L 116.40625 10.351562 L 107.453125 10.351562 L 107.453125 15.1875 L 115.476562 15.1875 L 115.476562 20.070312 L 107.457031 20.070312 L 107.457031 24.875 L 116.609375 24.875 L 116.609375 29.71875 Z M 103.105469 29.71875 "/>
<path style=" stroke:none;fill-rule:nonzero;fill:rgb(43.921569%,87.058824%,94.509804%);fill-opacity:1;" d="M 47.1875 29.730469 C 46.847656 28.457031 46.542969 27.183594 46.152344 25.964844 C 46 25.574219 45.730469 25.308594 45.421875 25.242188 C 43.339844 25.183594 41.265625 25.242188 39.191406 25.195312 C 39.003906 25.148438 38.8125 25.207031 38.660156 25.363281 C 38.507812 25.523438 38.40625 25.761719 38.378906 26.027344 C 38.367188 26.101562 38.347656 26.171875 38.324219 26.242188 C 37.988281 27.394531 37.855469 29.019531 37.25 29.601562 C 36.640625 30.183594 35.53125 29.769531 34.640625 29.785156 L 32.867188 29.785156 C 33.613281 27.304688 34.3125 24.945312 35.027344 22.589844 C 36.648438 17.234375 38.269531 11.878906 39.890625 6.523438 C 40.015625 5.847656 40.476562 5.414062 40.960938 5.523438 C 42.035156 5.597656 43.117188 5.523438 44.203125 5.570312 C 44.472656 5.597656 44.714844 5.796875 44.867188 6.113281 C 47.179688 13.921875 49.484375 21.730469 51.789062 29.542969 C 51.789062 29.601562 51.773438 29.664062 51.753906 29.714844 Z M 44.707031 20.515625 L 42.316406 11.757812 L 39.882812 20.515625 Z M 44.707031 20.515625 "/>
<path style=" stroke:none;fill-rule:nonzero;fill:rgb(43.921569%,87.058824%,94.509804%);fill-opacity:1;" d="M 180.136719 29.789062 C 180.882812 27.304688 181.585938 24.941406 182.296875 22.589844 C 183.917969 17.234375 185.542969 11.878906 187.164062 6.519531 C 187.289062 5.847656 187.75 5.417969 188.234375 5.523438 C 189.308594 5.59375 190.390625 5.523438 191.476562 5.570312 C 191.746094 5.597656 191.988281 5.800781 192.140625 6.117188 C 194.46875 13.925781 196.777344 21.742188 199.070312 29.566406 C 199.070312 29.621094 199.058594 29.679688 199.042969 29.730469 L 194.453125 29.730469 C 194.125 28.507812 193.816406 27.207031 193.417969 25.964844 C 193.261719 25.578125 192.992188 25.3125 192.683594 25.242188 C 190.609375 25.183594 188.527344 25.242188 186.453125 25.195312 C 186.269531 25.148438 186.078125 25.210938 185.925781 25.367188 C 185.769531 25.523438 185.667969 25.761719 185.644531 26.027344 C 185.628906 26.105469 185.609375 26.175781 185.585938 26.25 C 185.246094 27.402344 185.121094 29.019531 184.507812 29.605469 C 183.898438 30.1875 182.789062 29.773438 181.902344 29.789062 C 181.351562 29.800781 180.792969 29.789062 180.136719 29.789062 Z M 189.582031 11.75 C 188.726562 14.832031 187.960938 17.625 187.152344 20.496094 L 191.953125 20.496094 C 191.179688 17.613281 190.417969 14.832031 189.582031 11.75 Z M 189.582031 11.75 "/>
<path style=" stroke:none;fill-rule:nonzero;fill:rgb(43.921569%,87.058824%,94.509804%);fill-opacity:1;" d="M 175.292969 17.40625 L 179.019531 17.40625 L 179.019531 22.699219 C 178.976562 23.3125 178.976562 23.929688 179.019531 24.542969 C 179.328125 26.621094 178.558594 27.558594 177.328125 28.277344 C 174.171875 30.140625 171 30.875 167.78125 28.691406 C 164.386719 26.378906 162.691406 21.972656 162.964844 16.332031 C 163.292969 11.480469 165.65625 7.402344 168.9375 6.027344 C 172.28125 4.4375 175.960938 5.339844 178.742188 8.429688 C 178.890625 8.585938 179.011719 8.785156 179.195312 9.007812 L 176.832031 13.050781 C 176.253906 12.53125 175.738281 11.988281 175.171875 11.566406 C 172.40625 9.515625 169.496094 10.496094 168.074219 13.910156 C 166.914062 16.769531 167.21875 20.371094 168.8125 22.761719 C 170.449219 25.050781 172.957031 25.5 174.9375 23.859375 C 175.148438 23.613281 175.273438 23.25 175.285156 22.863281 C 175.308594 21.0625 175.292969 19.265625 175.292969 17.40625 Z M 175.292969 17.40625 "/>
<path style=" stroke:none;fill-rule:nonzero;fill:rgb(43.921569%,87.058824%,94.509804%);fill-opacity:1;" d="M 79.511719 21.746094 L 81.976562 25.460938 C 80.5625 28.226562 76.664062 30.976562 72.851562 29.746094 C 69.253906 28.667969 66.535156 24.433594 66.101562 19.226562 C 65.699219 13.597656 67.546875 8.777344 70.941406 6.570312 C 74.660156 4.152344 79.351562 5.328125 82.003906 9.457031 L 79.546875 13.589844 C 76.546875 9.898438 73.871094 9.546875 71.863281 12.480469 C 70.046875 15.34375 70.046875 19.695312 71.863281 22.558594 C 73.808594 25.496094 76.664062 25.210938 79.511719 21.746094 Z M 79.511719 21.746094 "/>
<path style=" stroke:none;fill-rule:nonzero;fill:rgb(43.921569%,87.058824%,94.509804%);fill-opacity:1;" d="M 23.246094 34.90625 L 21.625 34.90625 L 15.324219 35.054688 L 15.003906 35.054688 C 13.644531 35.304688 13.625 35.246094 13.632812 33.324219 C 13.632812 30.503906 13.601562 27.679688 13.632812 24.859375 C 13.671875 24.214844 13.777344 23.582031 13.941406 22.980469 C 14.148438 22.027344 14.398438 21.097656 14.613281 20.152344 C 15.0625 18.214844 14.695312 18.335938 16.363281 18.34375 C 18.484375 18.34375 20.609375 18.414062 22.730469 18.40625 C 23.375 18.40625 23.648438 18.714844 23.632812 19.671875 C 23.582031 22.6875 23.605469 25.710938 23.546875 28.722656 C 23.5 30.695312 23.355469 32.664062 23.246094 34.90625 Z M 23.246094 34.90625 "/>
<path style=" stroke:none;fill-rule:nonzero;fill:rgb(43.921569%,87.058824%,94.509804%);fill-opacity:1;" d="M 4.753906 36.425781 C 5.96875 33.003906 7.867188 30.648438 10.285156 28.585938 C 10.242188 29.332031 10.175781 30.070312 10.082031 30.804688 C 9.898438 31.90625 9.625 32.984375 9.453125 34.09375 C 9.417969 34.304688 9.628906 34.714844 9.800781 34.847656 C 10.566406 35.425781 11.359375 35.964844 12.265625 36.582031 L 8.613281 36.582031 C 7.320312 36.582031 6.03125 36.640625 4.738281 36.699219 C 3.707031 36.742188 2.667969 36.832031 1.632812 36.898438 C 1.035156 36.945312 0.601562 36.835938 0.613281 35.691406 C 0.648438 32.539062 0.613281 29.382812 0.613281 26.230469 C 0.613281 24.601562 0.613281 22.964844 0.5625 21.335938 C 0.535156 20.308594 0.734375 19.832031 1.542969 19.851562 C 4.53125 19.914062 7.519531 19.898438 10.507812 19.886719 C 11.007812 19.886719 11.148438 20.054688 11.078125 20.816406 C 10.761719 24.28125 9.835938 27.230469 7.859375 29.414062 C 7.199219 30.140625 6.6875 31.324219 5.960938 31.722656 C 4.917969 32.253906 4.742188 33.457031 4.335938 34.558594 C 4.199219 34.878906 4.167969 35.269531 4.246094 35.628906 C 4.328125 35.988281 4.511719 36.277344 4.753906 36.425781 Z M 4.753906 36.425781 "/>
<path style=" stroke:none;fill-rule:nonzero;fill:rgb(43.921569%,87.058824%,94.509804%);fill-opacity:1;" d="M 13.15625 5.371094 C 12.347656 4.246094 11.535156 4.066406 11.089844 4.738281 C 10.816406 5.1875 10.675781 5.773438 10.707031 6.367188 C 10.738281 6.964844 10.933594 7.515625 11.253906 7.902344 C 10.308594 8.378906 9.226562 8.070312 7.671875 6.683594 C 6.636719 5.753906 5.648438 4.671875 4.484375 3.484375 C 5.34375 4.980469 6.039062 6.300781 6.828125 7.527344 C 7.15625 7.921875 7.554688 8.175781 7.980469 8.253906 C 9.671875 8.734375 10.859375 10.277344 11.945312 12.003906 C 12.542969 12.910156 12.605469 14.292969 12.097656 15.304688 C 11.757812 16.160156 11.507812 17.082031 11.351562 18.042969 C 11.226562 18.789062 10.90625 18.683594 10.5625 18.6875 C 8.535156 18.6875 6.472656 18.6875 4.425781 18.734375 C 4.050781 18.703125 3.671875 18.742188 3.304688 18.851562 C 2.640625 19.117188 2.402344 18.777344 2.40625 17.851562 L 2.40625 9.765625 C 2.40625 7.453125 2.441406 5.097656 2.40625 2.769531 C 2.40625 1.929688 2.628906 1.613281 3.144531 1.613281 C 6.246094 1.613281 9.347656 1.625 12.445312 1.648438 C 12.925781 1.648438 13.199219 1.960938 13.183594 2.699219 C 13.167969 3.4375 13.15625 4.328125 13.15625 5.371094 Z M 13.15625 5.371094 "/>
<path style=" stroke:none;fill-rule:nonzero;fill:rgb(43.921569%,87.058824%,94.509804%);fill-opacity:1;" d="M 57.816406 24.609375 L 65.042969 24.609375 L 65.042969 29.695312 L 53.550781 29.695312 L 53.550781 5.621094 L 57.816406 5.621094 Z M 57.816406 24.609375 "/>
<path style=" stroke:none;fill-rule:nonzero;fill:rgb(43.921569%,87.058824%,94.509804%);fill-opacity:1;" d="M 141.402344 5.628906 L 141.402344 29.714844 L 137.152344 29.714844 L 137.152344 5.628906 Z M 141.402344 5.628906 "/>
<path style=" stroke:none;fill-rule:nonzero;fill:rgb(43.921569%,87.058824%,94.509804%);fill-opacity:1;" d="M 97 59.273438 C 97.589844 56.851562 98.105469 54.722656 98.621094 52.589844 C 98.953125 51.210938 99.335938 49.851562 99.585938 48.441406 C 99.78125 47.332031 100.175781 46.917969 100.941406 47.101562 C 101.144531 47.121094 101.347656 47.121094 101.550781 47.101562 C 102.515625 51.066406 103.46875 55 104.507812 59.273438 C 105.542969 55 106.492188 51.070312 107.441406 47.140625 L 109.035156 47.140625 C 108.628906 48.710938 108.261719 50.207031 107.875 51.703125 C 107.085938 54.765625 106.253906 57.816406 105.519531 60.898438 C 105.300781 61.808594 104.90625 61.671875 104.453125 61.695312 C 104.003906 61.71875 103.675781 61.695312 103.484375 60.886719 C 102.722656 57.6875 101.898438 54.535156 101.089844 51.34375 C 101 50.992188 100.898438 50.644531 100.730469 50.019531 C 100.273438 51.824219 99.875 53.378906 99.480469 54.933594 C 98.972656 56.960938 98.5 58.976562 97.949219 61.003906 C 97.78125 61.375 97.5 61.617188 97.191406 61.65625 C 96.785156 61.65625 96.277344 62.042969 96.035156 61.078125 C 94.878906 56.53125 93.6875 51.996094 92.511719 47.460938 C 92.503906 47.386719 92.503906 47.308594 92.511719 47.230469 C 92.554688 47.195312 92.59375 47.125 92.632812 47.121094 C 94.007812 47 94.003906 47.003906 94.460938 48.890625 C 95.285156 52.261719 96.109375 55.613281 97 59.273438 Z M 97 59.273438 "/>
<path style=" stroke:none;fill-rule:nonzero;fill:rgb(43.921569%,87.058824%,94.509804%);fill-opacity:1;" d="M 78.152344 45.023438 L 77.339844 46.542969 C 76.40625 45.863281 75.441406 45.285156 74.445312 44.808594 C 72.089844 43.929688 69.613281 45.378906 68.367188 48.363281 C 67.273438 51.035156 67.484375 54.402344 68.898438 56.75 C 70.488281 59.355469 73.066406 60.230469 75.304688 58.917969 C 75.53125 58.796875 75.742188 58.609375 75.972656 58.5 C 76.484375 58.300781 76.800781 57.566406 76.695312 56.824219 C 76.652344 55.335938 76.695312 53.839844 76.695312 52.273438 L 78.0625 52.273438 L 78.0625 58.90625 C 78.03125 59.125 77.941406 59.316406 77.808594 59.4375 C 74.25 63.082031 69.257812 62.25 66.984375 56.785156 C 64.441406 50.660156 67.480469 42.875 72.535156 42.46875 C 74.566406 42.257812 76.578125 43.171875 78.152344 45.023438 Z M 78.152344 45.023438 "/>
<path style=" stroke:none;fill-rule:nonzero;fill:rgb(43.921569%,87.058824%,94.509804%);fill-opacity:1;" d="M 123.261719 61.601562 L 121.890625 61.601562 L 121.890625 41.382812 L 123.289062 41.382812 L 123.289062 49.757812 C 124.03125 48.414062 125.09375 47.496094 126.273438 47.175781 C 129.1875 46.414062 131.09375 48.636719 131.09375 52.851562 L 131.09375 61.273438 C 131.078125 61.375 131.058594 61.46875 131.03125 61.5625 L 129.609375 61.5625 L 129.609375 53.539062 C 129.574219 51.226562 128.898438 49.851562 127.640625 49.425781 C 126.050781 48.882812 124.457031 49.730469 123.84375 51.675781 C 123.535156 52.78125 123.363281 53.953125 123.339844 55.144531 C 123.257812 57.175781 123.3125 59.214844 123.308594 61.257812 C 123.324219 61.3125 123.289062 61.394531 123.261719 61.601562 Z M 123.261719 61.601562 "/>
<path style=" stroke:none;fill-rule:nonzero;fill:rgb(43.921569%,87.058824%,94.509804%);fill-opacity:1;" d="M 116.699219 53.226562 C 116.921875 50.203125 115.636719 48.574219 113.53125 49.050781 C 113.054688 49.164062 112.589844 49.359375 112.144531 49.628906 C 111.703125 49.914062 111.269531 50.238281 110.855469 50.597656 C 110.652344 50.105469 110.449219 49.621094 110.261719 49.148438 C 111.933594 46.835938 115.128906 46.589844 116.628906 47.765625 C 117.492188 48.445312 118.082031 49.667969 118.21875 51.058594 C 118.257812 51.402344 118.273438 51.75 118.265625 52.09375 C 118.265625 55.238281 118.265625 58.378906 118.265625 61.582031 L 116.804688 61.582031 L 116.804688 59.585938 C 115.542969 61.425781 113.679688 62.136719 111.941406 61.4375 C 110.589844 61.039062 109.636719 59.308594 109.683594 57.34375 C 109.683594 55.414062 110.4375 54.039062 111.921875 53.535156 C 112.660156 53.335938 113.410156 53.242188 114.160156 53.246094 C 114.988281 53.191406 115.824219 53.226562 116.699219 53.226562 Z M 116.699219 54.855469 C 115.226562 54.972656 113.773438 55.023438 112.335938 55.226562 C 111.710938 55.296875 111.214844 55.988281 111.144531 56.871094 C 111 57.8125 111.316406 58.773438 111.917969 59.21875 C 113.035156 60.078125 114.394531 59.996094 115.460938 59.003906 C 116.492188 58.164062 116.96875 56.859375 116.699219 54.855469 Z M 116.699219 54.855469 "/>
<path style=" stroke:none;fill-rule:nonzero;fill:rgb(43.921569%,87.058824%,94.509804%);fill-opacity:1;" d="M 140.550781 53.226562 C 140.65625 50.089844 139.410156 48.554688 137.308594 49.0625 C 136.832031 49.179688 136.367188 49.375 135.921875 49.640625 C 135.492188 49.921875 135.074219 50.234375 134.667969 50.582031 L 134.039062 49.019531 C 135.847656 47.195312 137.777344 46.546875 139.882812 47.433594 C 141.144531 47.875 142.035156 49.484375 142.042969 51.335938 C 142.128906 54.710938 142.066406 58.089844 142.066406 61.546875 L 140.65625 61.546875 L 140.59375 59.550781 C 139.546875 61.074219 138.070312 61.839844 136.582031 61.625 C 134.363281 61.460938 132.929688 58.644531 133.660156 55.894531 C 134.082031 54.378906 135.09375 53.371094 136.238281 53.328125 C 137.382812 53.15625 138.445312 53.222656 139.550781 53.195312 C 139.871094 53.226562 140.1875 53.226562 140.550781 53.226562 Z M 140.523438 54.855469 C 139.054688 54.972656 137.609375 55.015625 136.167969 55.226562 C 135.519531 55.289062 135 56.03125 134.953125 56.957031 C 134.839844 57.910156 135.179688 58.855469 135.789062 59.269531 C 136.898438 60.078125 138.222656 59.980469 139.269531 59.019531 C 140.296875 58.183594 140.777344 56.878906 140.523438 54.855469 Z M 140.523438 54.855469 "/>
<path style=" stroke:none;fill-rule:nonzero;fill:rgb(43.921569%,87.058824%,94.509804%);fill-opacity:1;" d="M 81.339844 47.152344 L 82.8125 47.152344 L 82.8125 53.046875 C 82.8125 53.929688 82.792969 54.820312 82.851562 55.699219 C 82.996094 57.847656 83.664062 59.027344 84.878906 59.363281 C 86.378906 59.785156 87.8125 59.007812 88.394531 57.195312 C 88.71875 56.105469 88.898438 54.941406 88.921875 53.757812 C 89.003906 51.578125 88.945312 49.394531 88.945312 47.160156 L 90.363281 47.160156 L 90.363281 61.574219 L 88.984375 61.574219 L 88.984375 58.773438 C 88.8125 58.976562 88.722656 59.03125 88.6875 59.128906 C 87.6875 61.699219 85.117188 62.105469 83.582031 61.324219 C 82.269531 60.730469 81.375 58.996094 81.375 57.03125 C 81.269531 53.804688 81.339844 50.503906 81.339844 47.152344 Z M 81.339844 47.152344 "/>
<path style=" stroke:none;fill-rule:nonzero;fill:rgb(43.921569%,87.058824%,94.509804%);fill-opacity:1;" d="M 54.039062 44.601562 L 49.644531 44.601562 L 49.644531 42.554688 L 59.910156 42.554688 L 59.910156 44.558594 L 55.59375 44.558594 L 55.59375 61.601562 L 54.039062 61.601562 Z M 54.039062 44.601562 "/>
<path style=" stroke:none;fill-rule:nonzero;fill:rgb(43.921569%,87.058824%,94.509804%);fill-opacity:1;" d="M 200 52.761719 C 199.859375 53.019531 199.691406 53.246094 199.503906 53.433594 C 199.320312 53.488281 199.128906 53.488281 198.945312 53.433594 L 164.355469 53.433594 C 164.007812 53.417969 163.671875 53.265625 163.378906 52.996094 C 163.441406 51.984375 164.03125 52.476562 164.378906 52.476562 C 175.882812 52.449219 187.382812 52.449219 198.882812 52.476562 L 199.84375 52.476562 Z M 200 52.761719 "/>
<path style=" stroke:none;fill-rule:nonzero;fill:rgb(43.921569%,87.058824%,94.509804%);fill-opacity:1;" d="M 145.941406 49.464844 L 144.53125 49.371094 L 144.53125 47.773438 L 145.921875 47.59375 L 145.921875 43.949219 L 147.425781 43.949219 L 147.425781 47.632812 L 150.613281 47.632812 L 150.613281 49.367188 L 147.46875 49.367188 C 147.46875 52.257812 147.417969 55.066406 147.488281 57.859375 C 147.519531 59.125 148.1875 59.71875 149.085938 59.5 C 149.539062 59.347656 149.980469 59.152344 150.414062 58.921875 L 150.820312 60.539062 C 150.046875 61.382812 149.082031 61.78125 148.113281 61.652344 C 146.804688 61.503906 145.953125 60.109375 145.933594 58.011719 C 145.910156 55.632812 145.933594 53.246094 145.933594 50.863281 Z M 145.941406 49.464844 "/>
<path style=" stroke:none;fill-rule:nonzero;fill:rgb(43.921569%,87.058824%,94.509804%);fill-opacity:1;" d="M 40.148438 42.519531 L 41.570312 42.519531 L 41.570312 61.585938 L 40.148438 61.585938 Z M 40.148438 42.519531 "/>
<path style=" stroke:none;fill-rule:nonzero;fill:rgb(43.921569%,87.058824%,94.509804%);fill-opacity:1;" d="M 47.246094 61.613281 L 45.8125 61.613281 L 45.8125 42.550781 L 47.246094 42.550781 Z M 47.246094 61.613281 "/>
<path style=" stroke:none;fill-rule:nonzero;fill:rgb(43.921569%,87.058824%,94.509804%);fill-opacity:1;" d="M 154.363281 61.613281 L 152.992188 61.613281 L 152.992188 47.171875 L 154.363281 47.171875 Z M 154.363281 61.613281 "/>
<path style=" stroke:none;fill-rule:nonzero;fill:rgb(43.921569%,87.058824%,94.509804%);fill-opacity:1;" d="M 12.859375 27.050781 C 12.726562 29.9375 12.597656 32.828125 12.453125 35.753906 C 10.832031 34.890625 10.425781 33.957031 10.972656 31.835938 C 11.378906 30.136719 11.992188 28.527344 12.511719 26.875 Z M 12.859375 27.050781 "/>
<path style=" stroke:none;fill-rule:nonzero;fill:rgb(43.921569%,87.058824%,94.509804%);fill-opacity:1;" d="M 154.730469 43.03125 C 154.675781 43.988281 154.359375 44.542969 153.710938 44.507812 C 153.175781 44.417969 152.777344 43.761719 152.796875 42.992188 C 152.816406 42.226562 153.242188 41.609375 153.78125 41.574219 C 154.449219 41.601562 154.691406 42.25 154.730469 43.03125 Z M 154.730469 43.03125 "/>
</g>
</svg>
