<?xml version="1.0" encoding="UTF-8"?>
<svg xmlns="http://www.w3.org/2000/svg" xmlns:xlink="http://www.w3.org/1999/xlink" width="101pt" height="22pt" viewBox="0 0 101 22" version="1.1">
<g id="surface1">
<path style=" stroke:none;fill-rule:nonzero;fill:rgb(43.921569%,87.058824%,94.509804%);fill-opacity:1;" d="M 11.78125 0 C 11.8125 0.0234375 11.839844 0.0664062 11.871094 0.0703125 C 12.503906 0.132812 12.527344 0.179688 12.503906 0.8125 C 12.46875 1.664062 12.488281 2.519531 12.460938 3.375 C 12.433594 4.167969 12.394531 4.964844 12.328125 5.757812 C 12.328125 5.859375 12.105469 6.023438 11.976562 6.027344 C 11.191406 6.066406 10.402344 6.066406 9.609375 6.078125 L 7.746094 6.078125 C 7.769531 5.8125 7.789062 5.558594 7.8125 5.304688 C 7.871094 5.011719 7.894531 4.710938 7.878906 4.414062 C 7.738281 3.65625 8 3.050781 8.386719 2.417969 C 8.734375 1.777344 9.042969 1.113281 9.308594 0.429688 L 8.695312 1.007812 C 8.613281 1.84375 7.875 2.863281 7.121094 3.027344 L 7.121094 1.039062 C 7.105469 0.863281 7.109375 0.6875 7.132812 0.511719 C 7.191406 0.332031 7.269531 0.160156 7.363281 0 Z M 11.78125 0 "/>
<path style=" stroke:none;fill-rule:nonzero;fill:rgb(43.921569%,87.058824%,94.509804%);fill-opacity:1;" d="M 0 18.597656 C 0.804688 18.597656 1.605469 18.613281 2.410156 18.613281 L 16.886719 18.613281 C 16.992188 18.597656 17.101562 18.597656 17.210938 18.613281 C 17.277344 18.632812 17.328125 18.722656 17.386719 18.78125 C 17.328125 18.839844 17.277344 18.933594 17.207031 18.949219 C 17.085938 18.960938 16.960938 18.960938 16.839844 18.949219 L 0.523438 18.949219 C 0.351562 18.949219 0.175781 18.972656 0 18.988281 Z M 0 18.597656 "/>
<path style=" stroke:none;fill-rule:nonzero;fill:rgb(43.921569%,87.058824%,94.509804%);fill-opacity:1;" d="M 81.140625 1.996094 L 81.140625 10.570312 C 80.539062 10.570312 79.953125 10.585938 79.371094 10.558594 C 79.246094 10.558594 79.097656 10.40625 79.007812 10.289062 C 77.867188 8.777344 76.730469 7.257812 75.597656 5.738281 C 75.515625 5.628906 75.433594 5.523438 75.285156 5.328125 L 75.285156 10.542969 L 73.253906 10.542969 L 73.253906 1.96875 C 73.84375 1.96875 74.4375 1.957031 75.03125 1.980469 C 75.148438 1.980469 75.277344 2.128906 75.359375 2.242188 C 76.5 3.753906 77.640625 5.269531 78.773438 6.789062 C 78.859375 6.90625 78.953125 7.019531 79.097656 7.199219 L 79.097656 1.996094 Z M 81.140625 1.996094 "/>
<path style=" stroke:none;fill-rule:nonzero;fill:rgb(43.921569%,87.058824%,94.509804%);fill-opacity:1;" d="M 62.515625 10.546875 L 60.332031 10.546875 L 60.332031 2.03125 C 60.359375 2.011719 60.382812 1.980469 60.402344 1.980469 C 61.980469 2 63.566406 1.933594 65.136719 2.054688 C 66.582031 2.171875 67.457031 2.972656 67.6875 4.203125 C 67.949219 5.589844 67.621094 6.878906 66.375 7.625 C 66.332031 7.65625 66.289062 7.691406 66.253906 7.730469 L 68.019531 10.570312 C 67.484375 10.542969 66.945312 10.546875 66.410156 10.582031 C 65.722656 10.671875 65.335938 10.429688 65.09375 9.78125 C 64.878906 9.28125 64.625 8.796875 64.335938 8.335938 C 64.289062 8.242188 64.175781 8.128906 64.085938 8.128906 C 63.570312 8.109375 63.0625 8.117188 62.511719 8.117188 Z M 62.523438 6.425781 C 63.273438 6.386719 63.996094 6.40625 64.703125 6.304688 C 65.355469 6.210938 65.703125 5.691406 65.691406 5.003906 C 65.683594 4.320312 65.34375 3.855469 64.683594 3.773438 C 63.976562 3.683594 63.25 3.695312 62.523438 3.664062 Z M 62.523438 6.425781 "/>
<path style=" stroke:none;fill-rule:nonzero;fill:rgb(43.921569%,87.058824%,94.509804%);fill-opacity:1;" d="M 42.421875 1.980469 L 44.574219 1.980469 L 44.574219 5.464844 L 48.167969 5.464844 L 48.167969 1.996094 L 50.351562 1.996094 L 50.351562 10.546875 L 48.199219 10.546875 L 48.199219 7.234375 L 44.609375 7.234375 L 44.609375 10.542969 L 42.421875 10.542969 Z M 42.421875 1.980469 "/>
<path style=" stroke:none;fill-rule:nonzero;fill:rgb(43.921569%,87.058824%,94.509804%);fill-opacity:1;" d="M 52.066406 10.546875 L 52.066406 1.996094 L 58.785156 1.996094 L 58.785156 3.671875 L 54.265625 3.671875 L 54.265625 5.390625 L 58.316406 5.390625 L 58.316406 7.121094 L 54.265625 7.121094 L 54.265625 8.828125 L 58.886719 8.828125 L 58.886719 10.546875 Z M 52.066406 10.546875 "/>
<path style=" stroke:none;fill-rule:nonzero;fill:rgb(43.921569%,87.058824%,94.509804%);fill-opacity:1;" d="M 23.828125 10.550781 C 23.65625 10.097656 23.503906 9.644531 23.308594 9.210938 C 23.230469 9.074219 23.09375 8.980469 22.9375 8.957031 C 21.886719 8.9375 20.839844 8.957031 19.789062 8.941406 C 19.699219 8.921875 19.601562 8.945312 19.523438 9 C 19.445312 9.054688 19.394531 9.140625 19.382812 9.234375 C 19.375 9.261719 19.367188 9.285156 19.351562 9.3125 C 19.183594 9.722656 19.117188 10.296875 18.8125 10.503906 C 18.503906 10.710938 17.941406 10.5625 17.496094 10.570312 L 16.597656 10.570312 C 16.972656 9.6875 17.328125 8.851562 17.6875 8.015625 C 18.507812 6.113281 19.324219 4.214844 20.144531 2.316406 C 20.207031 2.074219 20.441406 1.921875 20.683594 1.960938 C 21.226562 1.984375 21.773438 1.960938 22.324219 1.976562 C 22.457031 1.988281 22.582031 2.058594 22.660156 2.167969 C 23.824219 4.941406 24.992188 7.710938 26.152344 10.480469 C 26.152344 10.503906 26.144531 10.527344 26.132812 10.542969 Z M 22.578125 7.28125 L 21.367188 4.171875 L 20.140625 7.28125 Z M 22.578125 7.28125 "/>
<path style=" stroke:none;fill-rule:nonzero;fill:rgb(43.921569%,87.058824%,94.509804%);fill-opacity:1;" d="M 90.96875 10.570312 C 91.347656 9.6875 91.699219 8.851562 92.0625 8.015625 C 92.878906 6.117188 93.699219 4.214844 94.515625 2.3125 C 94.582031 2.074219 94.8125 1.921875 95.058594 1.960938 C 95.601562 1.984375 96.144531 1.960938 96.695312 1.976562 C 96.832031 1.988281 96.953125 2.058594 97.03125 2.171875 C 98.207031 4.941406 99.371094 7.714844 100.53125 10.492188 C 100.53125 10.511719 100.523438 10.53125 100.515625 10.550781 L 98.199219 10.550781 C 98.035156 10.117188 97.875 9.652344 97.675781 9.214844 C 97.597656 9.074219 97.460938 8.980469 97.304688 8.957031 C 96.257812 8.9375 95.207031 8.957031 94.160156 8.941406 C 94.066406 8.921875 93.96875 8.945312 93.890625 9 C 93.816406 9.058594 93.761719 9.140625 93.75 9.234375 C 93.742188 9.261719 93.734375 9.289062 93.722656 9.3125 C 93.550781 9.722656 93.484375 10.296875 93.175781 10.503906 C 92.867188 10.710938 92.308594 10.5625 91.859375 10.570312 C 91.582031 10.574219 91.300781 10.570312 90.96875 10.570312 Z M 95.738281 4.167969 C 95.308594 5.261719 94.921875 6.253906 94.511719 7.273438 L 96.9375 7.273438 C 96.546875 6.25 96.160156 5.261719 95.738281 4.167969 Z M 95.738281 4.167969 "/>
<path style=" stroke:none;fill-rule:nonzero;fill:rgb(43.921569%,87.058824%,94.509804%);fill-opacity:1;" d="M 88.523438 6.175781 L 90.40625 6.175781 L 90.40625 8.054688 C 90.382812 8.273438 90.382812 8.492188 90.40625 8.707031 C 90.558594 9.445312 90.171875 9.777344 89.550781 10.035156 C 87.957031 10.695312 86.355469 10.953125 84.730469 10.179688 C 83.015625 9.359375 82.160156 7.796875 82.296875 5.796875 C 82.464844 4.074219 83.65625 2.625 85.3125 2.136719 C 87.003906 1.574219 88.859375 1.894531 90.265625 2.992188 C 90.339844 3.046875 90.402344 3.117188 90.492188 3.195312 L 89.300781 4.632812 C 89.007812 4.445312 88.75 4.253906 88.460938 4.105469 C 87.066406 3.375 85.597656 3.726562 84.875 4.9375 C 84.292969 5.949219 84.445312 7.230469 85.25 8.078125 C 86.078125 8.890625 87.34375 9.046875 88.34375 8.464844 C 88.449219 8.378906 88.511719 8.25 88.519531 8.113281 C 88.53125 7.472656 88.523438 6.835938 88.523438 6.175781 Z M 88.523438 6.175781 "/>
<path style=" stroke:none;fill-rule:nonzero;fill:rgb(43.921569%,87.058824%,94.509804%);fill-opacity:1;" d="M 40.15625 7.714844 L 41.398438 9.035156 C 40.683594 10.015625 38.714844 10.992188 36.792969 10.554688 C 34.972656 10.171875 33.601562 8.671875 33.382812 6.824219 C 33.175781 4.824219 34.109375 3.113281 35.824219 2.332031 C 37.703125 1.472656 40.070312 1.890625 41.414062 3.355469 L 40.171875 4.824219 C 38.65625 3.511719 37.304688 3.386719 36.292969 4.429688 C 35.375 5.445312 35.375 6.988281 36.292969 8.003906 C 37.273438 9.046875 38.714844 8.945312 40.15625 7.714844 Z M 40.15625 7.714844 "/>
<path style=" stroke:none;fill-rule:nonzero;fill:rgb(43.921569%,87.058824%,94.509804%);fill-opacity:1;" d="M 11.738281 12.386719 L 10.921875 12.386719 L 7.738281 12.4375 L 7.578125 12.4375 C 6.890625 12.527344 6.878906 12.507812 6.882812 11.824219 C 6.882812 10.824219 6.867188 9.820312 6.882812 8.820312 C 6.902344 8.59375 6.957031 8.367188 7.039062 8.15625 C 7.144531 7.816406 7.269531 7.488281 7.378906 7.152344 C 7.605469 6.464844 7.421875 6.507812 8.261719 6.507812 C 9.335938 6.507812 10.40625 6.535156 11.480469 6.53125 C 11.804688 6.53125 11.941406 6.640625 11.933594 6.980469 C 11.910156 8.050781 11.921875 9.121094 11.890625 10.191406 C 11.867188 10.890625 11.796875 11.589844 11.738281 12.386719 Z M 11.738281 12.386719 "/>
<path style=" stroke:none;fill-rule:nonzero;fill:rgb(43.921569%,87.058824%,94.509804%);fill-opacity:1;" d="M 2.402344 12.925781 C 3.015625 11.710938 3.972656 10.875 5.191406 10.144531 C 5.171875 10.40625 5.140625 10.671875 5.09375 10.929688 C 4.996094 11.320312 4.859375 11.703125 4.773438 12.097656 C 4.757812 12.171875 4.863281 12.320312 4.949219 12.367188 C 5.335938 12.570312 5.738281 12.761719 6.191406 12.980469 L 4.351562 12.980469 C 3.695312 12.980469 3.046875 13 2.394531 13.023438 C 1.871094 13.039062 1.347656 13.070312 0.824219 13.09375 C 0.523438 13.109375 0.304688 13.070312 0.308594 12.664062 C 0.328125 11.546875 0.308594 10.425781 0.308594 9.308594 C 0.308594 8.730469 0.308594 8.148438 0.285156 7.570312 C 0.269531 7.207031 0.371094 7.039062 0.78125 7.042969 C 2.289062 7.066406 3.796875 7.058594 5.304688 7.054688 C 5.558594 7.054688 5.628906 7.117188 5.59375 7.386719 C 5.433594 8.617188 4.96875 9.664062 3.96875 10.4375 C 3.636719 10.695312 3.378906 11.117188 3.007812 11.257812 C 2.484375 11.445312 2.394531 11.871094 2.191406 12.261719 C 2.121094 12.378906 2.105469 12.515625 2.144531 12.640625 C 2.183594 12.769531 2.277344 12.871094 2.402344 12.925781 Z M 2.402344 12.925781 "/>
<path style=" stroke:none;fill-rule:nonzero;fill:rgb(43.921569%,87.058824%,94.509804%);fill-opacity:1;" d="M 6.644531 1.90625 C 6.234375 1.507812 5.824219 1.441406 5.601562 1.679688 C 5.460938 1.839844 5.390625 2.046875 5.40625 2.257812 C 5.421875 2.472656 5.523438 2.667969 5.683594 2.804688 C 5.207031 2.972656 4.660156 2.863281 3.875 2.371094 C 3.351562 2.042969 2.851562 1.660156 2.265625 1.234375 C 2.699219 1.765625 3.050781 2.238281 3.449219 2.671875 C 3.613281 2.8125 3.816406 2.902344 4.03125 2.929688 C 4.882812 3.097656 5.484375 3.648438 6.03125 4.257812 C 6.335938 4.582031 6.367188 5.070312 6.109375 5.429688 C 5.9375 5.734375 5.8125 6.0625 5.730469 6.402344 C 5.667969 6.667969 5.507812 6.628906 5.335938 6.632812 C 4.3125 6.632812 3.269531 6.632812 2.234375 6.648438 C 2.046875 6.636719 1.855469 6.652344 1.667969 6.6875 C 1.332031 6.785156 1.214844 6.664062 1.214844 6.335938 L 1.214844 3.464844 C 1.214844 2.644531 1.234375 1.808594 1.214844 0.980469 C 1.214844 0.683594 1.328125 0.570312 1.589844 0.570312 C 3.15625 0.570312 4.71875 0.578125 6.285156 0.585938 C 6.527344 0.585938 6.664062 0.695312 6.65625 0.957031 C 6.648438 1.21875 6.644531 1.535156 6.644531 1.90625 Z M 6.644531 1.90625 "/>
<path style=" stroke:none;fill-rule:nonzero;fill:rgb(43.921569%,87.058824%,94.509804%);fill-opacity:1;" d="M 29.195312 8.734375 L 32.847656 8.734375 L 32.847656 10.535156 L 27.042969 10.535156 L 27.042969 1.996094 L 29.195312 1.996094 Z M 29.195312 8.734375 "/>
<path style=" stroke:none;fill-rule:nonzero;fill:rgb(43.921569%,87.058824%,94.509804%);fill-opacity:1;" d="M 71.410156 1.996094 L 71.410156 10.542969 L 69.261719 10.542969 L 69.261719 1.996094 Z M 71.410156 1.996094 "/>
<path style=" stroke:none;fill-rule:nonzero;fill:rgb(43.921569%,87.058824%,94.509804%);fill-opacity:1;" d="M 48.984375 21.03125 C 49.28125 20.171875 49.542969 19.417969 49.804688 18.660156 C 49.972656 18.171875 50.164062 17.691406 50.292969 17.1875 C 50.390625 16.796875 50.589844 16.648438 50.976562 16.714844 C 51.078125 16.71875 51.179688 16.71875 51.28125 16.714844 C 51.769531 18.121094 52.253906 19.515625 52.777344 21.03125 C 53.296875 19.515625 53.78125 18.121094 54.257812 16.726562 L 55.0625 16.726562 C 54.859375 17.285156 54.671875 17.816406 54.476562 18.347656 C 54.078125 19.433594 53.660156 20.515625 53.289062 21.609375 C 53.175781 21.929688 52.976562 21.882812 52.75 21.890625 C 52.523438 21.902344 52.355469 21.890625 52.261719 21.605469 C 51.875 20.46875 51.457031 19.351562 51.050781 18.21875 C 51.003906 18.09375 50.953125 17.972656 50.867188 17.75 C 50.636719 18.390625 50.4375 18.941406 50.238281 19.492188 C 49.980469 20.210938 49.742188 20.925781 49.464844 21.644531 C 49.378906 21.777344 49.238281 21.863281 49.082031 21.878906 C 48.875 21.878906 48.621094 22.015625 48.496094 21.671875 C 47.914062 20.058594 47.3125 18.449219 46.71875 16.839844 C 46.714844 16.8125 46.714844 16.785156 46.71875 16.757812 C 46.738281 16.746094 46.757812 16.722656 46.78125 16.71875 C 47.472656 16.675781 47.472656 16.679688 47.703125 17.347656 C 48.121094 18.542969 48.535156 19.734375 48.984375 21.03125 Z M 48.984375 21.03125 "/>
<path style=" stroke:none;fill-rule:nonzero;fill:rgb(43.921569%,87.058824%,94.509804%);fill-opacity:1;" d="M 39.464844 15.976562 L 39.058594 16.515625 C 38.585938 16.273438 38.097656 16.070312 37.597656 15.898438 C 36.40625 15.589844 35.152344 16.101562 34.523438 17.160156 C 33.972656 18.109375 34.078125 19.304688 34.792969 20.136719 C 35.59375 21.0625 36.898438 21.371094 38.03125 20.90625 C 38.144531 20.863281 38.25 20.796875 38.367188 20.757812 C 38.625 20.6875 38.785156 20.425781 38.730469 20.164062 C 38.710938 19.636719 38.730469 19.105469 38.730469 18.546875 L 39.421875 18.546875 L 39.421875 20.902344 C 39.40625 20.980469 39.359375 21.046875 39.292969 21.089844 C 37.496094 22.382812 34.976562 22.089844 33.828125 20.148438 C 32.542969 17.976562 34.078125 15.214844 36.628906 15.070312 C 37.65625 14.996094 38.671875 15.320312 39.464844 15.976562 Z M 39.464844 15.976562 "/>
<path style=" stroke:none;fill-rule:nonzero;fill:rgb(43.921569%,87.058824%,94.509804%);fill-opacity:1;" d="M 62.246094 21.859375 L 61.554688 21.859375 L 61.554688 14.683594 L 62.261719 14.683594 L 62.261719 17.65625 C 62.636719 17.179688 63.171875 16.855469 63.769531 16.738281 C 65.238281 16.46875 66.203125 17.257812 66.203125 18.753906 L 66.203125 21.742188 C 66.195312 21.777344 66.183594 21.8125 66.171875 21.84375 L 65.453125 21.84375 L 65.453125 18.996094 C 65.433594 18.175781 65.09375 17.691406 64.457031 17.539062 C 63.65625 17.34375 62.851562 17.648438 62.542969 18.335938 C 62.386719 18.730469 62.296875 19.144531 62.285156 19.566406 C 62.246094 20.289062 62.273438 21.011719 62.273438 21.734375 C 62.277344 21.757812 62.261719 21.785156 62.246094 21.859375 Z M 62.246094 21.859375 "/>
<path style=" stroke:none;fill-rule:nonzero;fill:rgb(43.921569%,87.058824%,94.509804%);fill-opacity:1;" d="M 58.933594 18.886719 C 59.046875 17.816406 58.398438 17.238281 57.332031 17.40625 C 57.09375 17.445312 56.859375 17.515625 56.632812 17.609375 C 56.410156 17.710938 56.191406 17.828125 55.980469 17.953125 C 55.878906 17.78125 55.777344 17.609375 55.683594 17.441406 C 56.527344 16.621094 58.140625 16.53125 58.898438 16.949219 C 59.332031 17.191406 59.632812 17.625 59.699219 18.117188 C 59.71875 18.238281 59.726562 18.363281 59.722656 18.484375 C 59.722656 19.601562 59.722656 20.714844 59.722656 21.851562 L 58.988281 21.851562 L 58.988281 21.144531 C 58.351562 21.796875 57.40625 22.050781 56.53125 21.800781 C 55.847656 21.660156 55.367188 21.046875 55.390625 20.347656 C 55.390625 19.664062 55.769531 19.175781 56.519531 18.996094 C 56.894531 18.925781 57.273438 18.890625 57.652344 18.894531 C 58.070312 18.875 58.492188 18.886719 58.933594 18.886719 Z M 58.933594 19.464844 C 58.1875 19.507812 57.457031 19.523438 56.730469 19.597656 C 56.414062 19.621094 56.164062 19.867188 56.128906 20.179688 C 56.054688 20.515625 56.214844 20.855469 56.519531 21.011719 C 57.082031 21.316406 57.769531 21.289062 58.308594 20.9375 C 58.828125 20.640625 59.070312 20.175781 58.933594 19.464844 Z M 58.933594 19.464844 "/>
<path style=" stroke:none;fill-rule:nonzero;fill:rgb(43.921569%,87.058824%,94.509804%);fill-opacity:1;" d="M 70.976562 18.886719 C 71.03125 17.773438 70.402344 17.230469 69.339844 17.410156 C 69.101562 17.449219 68.867188 17.519531 68.640625 17.613281 C 68.425781 17.714844 68.214844 17.824219 68.007812 17.949219 L 67.691406 17.394531 C 68.605469 16.746094 69.578125 16.515625 70.640625 16.832031 C 71.277344 16.988281 71.726562 17.558594 71.730469 18.214844 C 71.773438 19.414062 71.742188 20.613281 71.742188 21.839844 L 71.03125 21.839844 L 71 21.132812 C 70.472656 21.671875 69.726562 21.941406 68.972656 21.867188 C 67.855469 21.808594 67.128906 20.808594 67.496094 19.832031 C 67.710938 19.296875 68.222656 18.9375 68.800781 18.921875 C 69.378906 18.863281 69.914062 18.886719 70.472656 18.875 C 70.632812 18.886719 70.792969 18.886719 70.976562 18.886719 Z M 70.964844 19.464844 C 70.222656 19.507812 69.492188 19.523438 68.765625 19.597656 C 68.4375 19.621094 68.175781 19.882812 68.152344 20.210938 C 68.09375 20.546875 68.265625 20.882812 68.574219 21.03125 C 69.132812 21.316406 69.800781 21.285156 70.332031 20.941406 C 70.847656 20.644531 71.09375 20.183594 70.964844 19.464844 Z M 70.964844 19.464844 "/>
<path style=" stroke:none;fill-rule:nonzero;fill:rgb(43.921569%,87.058824%,94.509804%);fill-opacity:1;" d="M 41.078125 16.730469 L 41.820312 16.730469 L 41.820312 18.824219 C 41.820312 19.136719 41.808594 19.453125 41.839844 19.765625 C 41.914062 20.527344 42.25 20.945312 42.863281 21.0625 C 43.621094 21.214844 44.34375 20.9375 44.640625 20.296875 C 44.804688 19.910156 44.894531 19.496094 44.90625 19.074219 C 44.945312 18.300781 44.917969 17.527344 44.917969 16.734375 L 45.632812 16.734375 L 45.632812 21.847656 L 44.9375 21.847656 L 44.9375 20.855469 C 44.851562 20.925781 44.804688 20.945312 44.785156 20.980469 C 44.28125 21.894531 42.984375 22.035156 42.210938 21.761719 C 41.546875 21.550781 41.09375 20.933594 41.09375 20.238281 C 41.039062 19.089844 41.078125 17.921875 41.078125 16.730469 Z M 41.078125 16.730469 "/>
<path style=" stroke:none;fill-rule:nonzero;fill:rgb(43.921569%,87.058824%,94.509804%);fill-opacity:1;" d="M 27.289062 15.824219 L 25.070312 15.824219 L 25.070312 15.101562 L 30.253906 15.101562 L 30.253906 15.8125 L 28.074219 15.8125 L 28.074219 21.859375 L 27.289062 21.859375 Z M 27.289062 15.824219 "/>
<path style=" stroke:none;fill-rule:nonzero;fill:rgb(43.921569%,87.058824%,94.509804%);fill-opacity:1;" d="M 101 18.722656 C 100.929688 18.8125 100.84375 18.894531 100.75 18.960938 C 100.65625 18.980469 100.5625 18.980469 100.46875 18.960938 L 83 18.960938 C 82.824219 18.953125 82.652344 18.902344 82.507812 18.804688 C 82.539062 18.445312 82.835938 18.621094 83.011719 18.621094 C 88.820312 18.609375 94.628906 18.609375 100.4375 18.621094 L 100.921875 18.621094 Z M 101 18.722656 "/>
<path style=" stroke:none;fill-rule:nonzero;fill:rgb(43.921569%,87.058824%,94.509804%);fill-opacity:1;" d="M 73.699219 17.550781 L 72.988281 17.519531 L 72.988281 16.953125 L 73.691406 16.886719 L 73.691406 15.59375 L 74.449219 15.59375 L 74.449219 16.902344 L 76.058594 16.902344 L 76.058594 17.515625 L 74.472656 17.515625 C 74.472656 18.542969 74.445312 19.539062 74.480469 20.53125 C 74.496094 20.980469 74.835938 21.191406 75.289062 21.113281 C 75.515625 21.058594 75.738281 20.988281 75.957031 20.90625 L 76.164062 21.480469 C 75.773438 21.78125 75.285156 21.921875 74.796875 21.878906 C 74.136719 21.824219 73.707031 21.328125 73.695312 20.585938 C 73.683594 19.742188 73.695312 18.894531 73.695312 18.046875 Z M 73.699219 17.550781 "/>
<path style=" stroke:none;fill-rule:nonzero;fill:rgb(43.921569%,87.058824%,94.509804%);fill-opacity:1;" d="M 20.277344 15.089844 L 20.992188 15.089844 L 20.992188 21.851562 L 20.277344 21.851562 Z M 20.277344 15.089844 "/>
<path style=" stroke:none;fill-rule:nonzero;fill:rgb(43.921569%,87.058824%,94.509804%);fill-opacity:1;" d="M 23.859375 21.863281 L 23.136719 21.863281 L 23.136719 15.097656 L 23.859375 15.097656 Z M 23.859375 21.863281 "/>
<path style=" stroke:none;fill-rule:nonzero;fill:rgb(43.921569%,87.058824%,94.509804%);fill-opacity:1;" d="M 77.953125 21.863281 L 77.261719 21.863281 L 77.261719 16.738281 L 77.953125 16.738281 Z M 77.953125 21.863281 "/>
<path style=" stroke:none;fill-rule:nonzero;fill:rgb(43.921569%,87.058824%,94.509804%);fill-opacity:1;" d="M 6.492188 9.597656 C 6.425781 10.621094 6.363281 11.648438 6.289062 12.6875 C 5.46875 12.378906 5.265625 12.050781 5.542969 11.296875 C 5.746094 10.695312 6.058594 10.121094 6.320312 9.535156 Z M 6.492188 9.597656 "/>
<path style=" stroke:none;fill-rule:nonzero;fill:rgb(43.921569%,87.058824%,94.509804%);fill-opacity:1;" d="M 78.140625 15.269531 C 78.109375 15.609375 77.949219 15.804688 77.621094 15.792969 C 77.351562 15.761719 77.152344 15.527344 77.160156 15.253906 C 77.171875 14.984375 77.386719 14.765625 77.660156 14.75 C 77.996094 14.761719 78.121094 14.992188 78.140625 15.269531 Z M 78.140625 15.269531 "/>
</g>
</svg>
